<?xml version="1.0" standalone="no"?><!DOCTYPE svg PUBLIC "-//W3C//DTD SVG 1.1//EN" "http://www.w3.org/Graphics/SVG/1.1/DTD/svg11.dtd"><svg class="icon" width="200px" height="200.00px" viewBox="0 0 1024 1024" version="1.1" xmlns="http://www.w3.org/2000/svg"><path fill="#c0c4cc" d="M849.1 128 174.9 128c-25.9 0-46.9 21-46.9 46.9l0 34.2c0 25.9 21 46.9 46.9 46.9l674.2 0c25.9 0 46.9-21 46.9-46.9l0-34.2C896 149 875 128 849.1 128zM849.1 768 174.9 768c-25.9 0-46.9 21-46.9 46.9l0 34.2c0 25.9 21 46.9 46.9 46.9l674.2 0c25.9 0 46.9-21 46.9-46.9l0-34.2C896 789 875 768 849.1 768zM849.1 448 174.9 448c-25.9 0-46.9 21-46.9 46.9l0 34.2c0 25.9 21 46.9 46.9 46.9l674.2 0c25.9 0 46.9-21 46.9-46.9l0-34.2C896 469 875 448 849.1 448z" /></svg>